<?xml version="1.0" encoding="UTF-8" standalone="no"?>
<svg
   xmlns:dc="http://purl.org/dc/elements/1.1/"
   xmlns:cc="http://creativecommons.org/ns#"
   xmlns:rdf="http://www.w3.org/1999/02/22-rdf-syntax-ns#"
   xmlns:svg="http://www.w3.org/2000/svg"
   xmlns="http://www.w3.org/2000/svg"
   xmlns:sodipodi="http://sodipodi.sourceforge.net/DTD/sodipodi-0.dtd"
   xmlns:inkscape="http://www.inkscape.org/namespaces/inkscape"
   version="1.1"
   id="Capa_1"
   x="0px"
   y="0px"
   viewBox="0 0 26.99 26.99"
   style="enable-background:new 0 0 26.99 26.99;"
   xml:space="preserve"
   sodipodi:docname="die-face.svg"
   inkscape:version="1.0.2 (e86c8708, 2021-01-15)"><metadata
   id="metadata79"><rdf:RDF><cc:Work
       rdf:about=""><dc:format>image/svg+xml</dc:format><dc:type
         rdf:resource="http://purl.org/dc/dcmitype/StillImage" /></cc:Work></rdf:RDF></metadata><defs
   id="defs77" /><sodipodi:namedview
   pagecolor="#ffffff"
   bordercolor="#666666"
   borderopacity="1"
   objecttolerance="10"
   gridtolerance="10"
   guidetolerance="10"
   inkscape:pageopacity="0"
   inkscape:pageshadow="2"
   inkscape:window-width="1874"
   inkscape:window-height="1035"
   id="namedview75"
   showgrid="false"
   inkscape:zoom="27.232308"
   inkscape:cx="12.83402"
   inkscape:cy="13.495"
   inkscape:window-x="1440"
   inkscape:window-y="23"
   inkscape:window-maximized="1"
   inkscape:current-layer="Capa_1" />
<g
   id="g42"
   style="fill:#fe8b02;fill-opacity:1">
	<path
   d="M24.844,0.616H2.146C0.96,0.616,0,1.577,0,2.761v21.467c0,1.184,0.96,2.145,2.146,2.145h22.698   c1.182,0,2.146-0.961,2.146-2.145V2.761C26.99,1.577,26.025,0.616,24.844,0.616z M6.168,8.78c-1.533,0-2.779-1.244-2.779-2.779   c0-1.531,1.246-2.777,2.779-2.777c1.534,0,2.777,1.246,2.777,2.777C8.945,7.536,7.702,8.78,6.168,8.78z M20.949,16.272   c-1.535,0-2.778-1.242-2.778-2.777c0-1.533,1.243-2.777,2.778-2.777c1.533,0,2.779,1.244,2.779,2.777   C23.729,15.03,22.482,16.272,20.949,16.272z M6.208,16.272c-1.534,0-2.777-1.242-2.777-2.777c0-1.533,1.243-2.777,2.777-2.777   s2.777,1.244,2.777,2.777C8.985,15.03,7.742,16.272,6.208,16.272z M21.165,23.62c-1.532,0-2.778-1.244-2.778-2.777   s1.246-2.777,2.778-2.777c1.534,0,2.778,1.244,2.778,2.777S22.699,23.62,21.165,23.62z M21.006,8.828   c-1.533,0-2.777-1.244-2.777-2.775c0-1.533,1.244-2.777,2.777-2.777s2.777,1.244,2.777,2.777   C23.783,7.583,22.539,8.828,21.006,8.828z M6.235,23.557c-1.533,0-2.777-1.244-2.777-2.777c0-1.535,1.244-2.777,2.777-2.777   c1.534,0,2.779,1.242,2.779,2.777C9.015,22.313,7.77,23.557,6.235,23.557z"
   id="path10"
   style="fill:#fe8b02;fill-opacity:1" />
	<g
   id="g12"
   style="fill:#fe8b02;fill-opacity:1">
	</g>
	<g
   id="g14"
   style="fill:#fe8b02;fill-opacity:1">
	</g>
	<g
   id="g16"
   style="fill:#fe8b02;fill-opacity:1">
	</g>
	<g
   id="g18"
   style="fill:#fe8b02;fill-opacity:1">
	</g>
	<g
   id="g20"
   style="fill:#fe8b02;fill-opacity:1">
	</g>
	<g
   id="g22"
   style="fill:#fe8b02;fill-opacity:1">
	</g>
	<g
   id="g24"
   style="fill:#fe8b02;fill-opacity:1">
	</g>
	<g
   id="g26"
   style="fill:#fe8b02;fill-opacity:1">
	</g>
	<g
   id="g28"
   style="fill:#fe8b02;fill-opacity:1">
	</g>
	<g
   id="g30"
   style="fill:#fe8b02;fill-opacity:1">
	</g>
	<g
   id="g32"
   style="fill:#fe8b02;fill-opacity:1">
	</g>
	<g
   id="g34"
   style="fill:#fe8b02;fill-opacity:1">
	</g>
	<g
   id="g36"
   style="fill:#fe8b02;fill-opacity:1">
	</g>
	<g
   id="g38"
   style="fill:#fe8b02;fill-opacity:1">
	</g>
	<g
   id="g40"
   style="fill:#fe8b02;fill-opacity:1">
	</g>
</g>
<g
   id="g44">
</g>
<g
   id="g46">
</g>
<g
   id="g48">
</g>
<g
   id="g50">
</g>
<g
   id="g52">
</g>
<g
   id="g54">
</g>
<g
   id="g56">
</g>
<g
   id="g58">
</g>
<g
   id="g60">
</g>
<g
   id="g62">
</g>
<g
   id="g64">
</g>
<g
   id="g66">
</g>
<g
   id="g68">
</g>
<g
   id="g70">
</g>
<g
   id="g72">
</g>
</svg>
