<?xml version="1.0" standalone="no"?>
<!DOCTYPE svg PUBLIC "-//W3C//DTD SVG 20010904//EN"
 "http://www.w3.org/TR/2001/REC-SVG-20010904/DTD/svg10.dtd">
<svg version="1.0" xmlns="http://www.w3.org/2000/svg"
 width="700.000000pt" height="700.000000pt" viewBox="0 0 700.000000 700.000000"
 preserveAspectRatio="xMidYMid meet">
<metadata>
Created by potrace 1.14, written by Peter Selinger 2001-2017
</metadata>
<g transform="translate(0.000000,700.000000) scale(0.100000,-0.100000)"
fill="#000000" stroke="none">
<path d="M430 6825 c-51 -13 -102 -34 -174 -72 -40 -21 -127 -109 -162 -163
-43 -66 -53 -89 -74 -166 -18 -67 -19 -163 -17 -2944 l2 -2875 24 -65 c51
-137 146 -249 268 -313 138 -72 -129 -67 3203 -67 3334 0 3065 -5 3204 68 92
48 190 146 233 234 68 136 63 -99 63 3043 -1 2696 -2 2854 -18 2915 -41 150
-146 283 -278 352 -139 73 131 68 -3209 67 -2488 -1 -3020 -3 -3065 -14z
m1270 -669 c298 -41 543 -271 604 -568 19 -92 15 -246 -8 -332 -68 -247 -272
-446 -526 -512 -78 -21 -241 -23 -320 -5 -140 32 -256 96 -356 195 -82 82
-142 178 -180 291 -25 71 -28 95 -28 210 -1 179 26 273 118 410 152 228 422
348 696 311z m3921 -28 c218 -58 391 -202 483 -402 72 -155 82 -378 24 -531
-63 -168 -172 -300 -316 -383 -130 -76 -241 -103 -392 -98 -303 11 -554 200
-657 494 -24 69 -27 91 -27 217 -1 155 10 206 70 326 97 196 277 335 494 384
81 18 241 15 321 -7z m-3796 -1942 c233 -76 404 -251 476 -486 30 -97 33 -280
6 -380 -68 -249 -248 -435 -497 -512 -108 -33 -293 -33 -400 1 -247 77 -414
244 -492 491 -33 107 -33 292 1 400 79 255 263 432 522 500 108 28 275 22 384
-14z m3814 4 c198 -64 373 -217 452 -395 66 -149 79 -337 34 -490 -60 -204
-184 -354 -375 -450 -93 -47 -158 -64 -276 -72 -151 -9 -302 30 -429 112 -291
186 -407 550 -278 873 87 222 282 385 520 436 95 20 267 13 352 -14z m-3795
-1898 c109 -37 180 -80 266 -160 137 -126 217 -301 225 -491 14 -339 -206
-638 -535 -727 -82 -22 -246 -26 -326 -9 -336 73 -575 364 -575 700 0 50 3
101 6 115 3 14 7 38 10 53 8 39 48 145 75 192 98 176 297 318 500 356 25 4 95
6 156 4 91 -2 127 -8 198 -33z m3761 13 c106 -15 229 -69 320 -137 366 -279
378 -832 25 -1126 -170 -141 -389 -195 -608 -150 -328 66 -564 351 -571 689
-10 445 389 791 834 724z"/>
</g>
</svg>
